#VRML V2.0 utf8
# Coilcraft BCR-162 outline from Document 334R-2: A 3.81, B 5.59, C 4.06 mm
Shape { appearance Appearance { material Material { diffuseColor 0.16 0.16 0.17 } }
 geometry IndexedFaceSet { coordIndex [0,3,2,1,-1,4,5,6,7,-1,0,1,5,4,-1,1,2,6,5,-1,2,3,7,6,-1,3,0,4,7,-1]
 coord Coordinate { point [-1.1004 -0.7500 0.1378,1.1004 -0.7500 0.1378,1.1004 0.7500 0.1378,-1.1004 0.7500 0.1378,-1.1004 -0.7500 1.5984,1.1004 -0.7500 1.5984,1.1004 0.7500 1.5984,-1.1004 0.7500 1.5984] } } }
Shape { appearance Appearance { material Material { diffuseColor 0.82 0.82 0.78 } }
 geometry IndexedFaceSet { coordIndex [0,3,2,1,-1,4,5,6,7,-1,0,1,5,4,-1,1,2,6,5,-1,2,3,7,6,-1,3,0,4,7,-1,8,11,10,9,-1,12,13,14,15,-1,8,9,13,12,-1,9,10,14,13,-1,10,11,15,14,-1,11,8,12,15,-1,16,19,18,17,-1,20,21,22,23,-1,16,17,21,20,-1,17,18,22,21,-1,18,19,23,22,-1,19,16,20,23,-1,24,27,26,25,-1,28,29,30,31,-1,24,25,29,28,-1,25,26,30,29,-1,26,27,31,30,-1,27,24,28,31,-1,32,35,34,33,-1,36,37,38,39,-1,32,33,37,36,-1,33,34,38,37,-1,34,35,39,38,-1,35,32,36,39,-1,40,43,42,41,-1,44,45,46,47,-1,40,41,45,44,-1,41,42,46,45,-1,42,43,47,46,-1,43,40,44,47,-1]
 coord Coordinate { point [-1.1516 -0.8012 0.0000,-0.7500 -0.8012 0.0000,-0.7500 -0.3996 0.0000,-1.1516 -0.3996 0.0000,-1.1516 -0.8012 0.1378,-0.7500 -0.8012 0.1378,-0.7500 -0.3996 0.1378,-1.1516 -0.3996 0.1378,-1.1516 0.3996 0.0000,-0.7500 0.3996 0.0000,-0.7500 0.8012 0.0000,-1.1516 0.8012 0.0000,-1.1516 0.3996 0.1378,-0.7500 0.3996 0.1378,-0.7500 0.8012 0.1378,-1.1516 0.8012 0.1378,0.7500 -0.8012 0.0000,1.1516 -0.8012 0.0000,1.1516 -0.3996 0.0000,0.7500 -0.3996 0.0000,0.7500 -0.8012 0.1378,1.1516 -0.8012 0.1378,1.1516 -0.3996 0.1378,0.7500 -0.3996 0.1378,0.7500 0.3996 0.0000,1.1516 0.3996 0.0000,1.1516 0.8012 0.0000,0.7500 0.8012 0.0000,0.7500 0.3996 0.1378,1.1516 0.3996 0.1378,1.1516 0.8012 0.1378,0.7500 0.8012 0.1378,-1.0217 -0.6319 0.0000,1.0217 -0.6319 0.0000,1.0217 -0.5689 0.0000,-1.0217 -0.5689 0.0000,-1.0217 -0.6319 0.1378,1.0217 -0.6319 0.1378,1.0217 -0.5689 0.1378,-1.0217 -0.5689 0.1378,-1.0217 0.5689 0.0000,1.0217 0.5689 0.0000,1.0217 0.6319 0.0000,-1.0217 0.6319 0.0000,-1.0217 0.5689 0.1378,1.0217 0.5689 0.1378,1.0217 0.6319 0.1378,-1.0217 0.6319 0.1378] } } }
Shape { appearance Appearance { material Material { diffuseColor 0.9 0.9 0.9 } }
 geometry IndexedFaceSet { coordIndex [0,3,2,1,-1,4,5,6,7,-1,0,1,5,4,-1,1,2,6,5,-1,2,3,7,6,-1,3,0,4,7,-1]
 coord Coordinate { point [0.6693 -0.5512 1.5984,0.8661 -0.5512 1.5984,0.8661 -0.3543 1.5984,0.6693 -0.3543 1.5984,0.6693 -0.5512 1.6063,0.8661 -0.5512 1.6063,0.8661 -0.3543 1.6063,0.6693 -0.3543 1.6063] } } }
